# xmcd
# Track frame offsets:
# 150
# 17300
# 41945
# 49754
# 61250
# 78545
# 93687
# 113216
# 129473
# 145221
# 158806
# 176352
#
# Disc length: 2669 seconds
# Revision: 0
# Processed by: cddbd v1.4PL0 Copyright (c) Steve Scherf et al.
# Submitted via: VisiTrax 2.9.5.181 - For more info visit www.synapsa.com
#
DISCID=9c0a6b0c
DTITLE=Dwight Yoakam - La Croix d'Amor
DYEAR=1900
DGENRE=
TTITLE0=Things we Said Today
TTITLE1=Truckin'
TTITLE2=If There Was A Way
TTITLE3=Hey Little Girl
TTITLE4=What I Don't Know
TTITLE5=Here Comes The Night
TTITLE6=Dangerous Man
TTITLE7=Let's Work Together
TTITLE8=Doin' What I Do
TTITLE9=Take A Lot To Rock You
TTITLE10=Suspicious Minds
TTITLE11=Long White Cadillac
EXTD=
EXTT0=
EXTT1=
EXTT2=
EXTT3=
EXTT4=
EXTT5=
EXTT6=
EXTT7=
EXTT8=
EXTT9=
EXTT10=
EXTT11=
PLAYORDER=
